<svg xmlns="http://www.w3.org/2000/svg" viewBox="0 0 537.82 85.02"><defs><style>.cls-1{fill:#fafafa;}</style></defs><g id="Capa_2" data-name="Capa 2"><g id="Capa_1-2" data-name="Capa 1"><g id="Imagotipo"><g id="Logotipo"><path id="f" class="cls-1" d="M479.11,21.93v3.18h17.65v5.77H479.45V83.81h-6.1V30.88H463.17V25.11h10.18V21.94c0-14.43,8.07-22.77,23.41-21.59V5.92C484.68,5,479.11,10.51,479.11,21.93Z"/><path id="t" class="cls-1" d="M520.17,30.88V69.14c0,10.36,5.57,10.59,17.65,9.53v5C522.48,86.06,514.4,82.31,514.4,69V30.88H501.51V25.11H514.4V10.44l5.77-1.76V25.11h17.65v5.77Z"/><path id="o" class="cls-1" d="M397.83,54.39c0-17.36,13.73-30.63,30.86-30.63a30.63,30.63,0,1,1,0,61.26C411.56,85,397.83,71.76,397.83,54.39Zm55.62,0a24.82,24.82,0,1,0-49.64,0,24.82,24.82,0,1,0,49.64,0Z"/><path id="s" class="cls-1" d="M390.49,68.36C390.49,78,382,85,369.48,85c-11.73,0-19.48-5.51-22.29-13l5-2.94c2.11,6.34,8.45,10.33,17.25,10.33,8.22,0,15.14-3.64,15.14-11,0-16-35.56-6.81-35.56-27.93,0-9.27,8-16.67,19.95-16.67,9.51,0,16.79,4.58,20,11.74L384,38.32c-2.47-6.11-8.57-8.92-15-8.92-7.62,0-14.08,4-14.08,11C354.93,56.15,390.49,46.88,390.49,68.36Z"/><path id="i" class="cls-1" d="M328.15,6.16a4.7,4.7,0,0,1,9.39,0,4.7,4.7,0,0,1-9.39,0Zm1.66,19h5.77v58.7h-5.77Z"/><path id="e" class="cls-1" d="M318.34,54.53c0,.94-.12,1.88-.12,2.81H265.06c1.41,13.27,11.5,22,24.88,22,9.62,0,16.9-4.46,20.3-10.68l5.16,3c-4.81,8-14,13.26-25.58,13.26C271.75,84.92,259,72,259,54.29c0-17.25,12.44-30.63,30.4-30.63S318.34,38.45,318.34,54.53Zm-53.28-3h47.17c-1.29-14.32-11.38-22.3-22.88-22.3C276,29.28,266.23,38.55,265.06,51.58Z"/><path id="n" class="cls-1" d="M247.7,47.3V83.81h-5.77V47.31c0-10.79-6.25-17.84-17.35-17.84-11.56,0-20.65,7.52-20.65,23.36v31h-6.11V25.11h6.11V36.26c4.46-8.68,12-12.44,21-12.44C238.9,23.82,247.7,33.09,247.7,47.3Z"/><path id="e-2" data-name="e" class="cls-1" d="M186.59,54.53c0,.94-.12,1.88-.12,2.81H133.31c1.41,13.27,11.5,22,24.88,22,9.62,0,16.9-4.46,20.3-10.68l5.16,3c-4.81,8-14,13.26-25.58,13.26C140,84.92,127.2,72,127.2,54.29c0-17.25,12.44-30.63,30.4-30.63S186.59,38.45,186.59,54.53Zm-53.28-3h47.17c-1.29-14.32-11.38-22.3-22.88-22.3C144.22,29.28,134.48,38.55,133.31,51.58Z"/></g><g id="Isotipo"><polygon class="cls-1" points="6.45 6.79 6.45 78.04 78.04 78.04 78.04 27.14 60.74 27.14 60.74 64.47 16.63 64.47 16.63 20.36 47.16 20.36 47.16 44.11 30.54 44.11 30.54 37.33 40.72 37.33 40.72 27.14 23.75 27.14 23.75 57.68 54.29 57.68 54.29 20.36 84.83 20.36 84.83 84.83 0 84.83 0 0 84.83 0 84.83 6.79 6.45 6.79"/></g></g></g></g></svg>