<svg width="37" height="33" viewBox="0 0 37 33" fill="none" xmlns="http://www.w3.org/2000/svg">
<path d="M0.303955 31.68C0.303955 32.4101 0.947128 33 1.74322 33H34.8464C35.6425 33 36.2856 32.4101 36.2856 31.68V14.355H0.303955V31.68ZM34.8464 2.97H27.2902V0.33C27.2902 0.1485 27.1283 0 26.9304 0H24.4117C24.2138 0 24.0519 0.1485 24.0519 0.33V2.97H12.5377V0.33C12.5377 0.1485 12.3758 0 12.1779 0H9.65919C9.46129 0 9.29938 0.1485 9.29938 0.33V2.97H1.74322C0.947128 2.97 0.303955 3.55988 0.303955 4.29V11.55H36.2856V4.29C36.2856 3.55988 35.6425 2.97 34.8464 2.97Z" fill="#FAFAFA"/>
</svg>
