<svg width="28" height="40" viewBox="0 0 28 40" fill="none" xmlns="http://www.w3.org/2000/svg">
<g clip-path="url(#clip0_1_1737)">
<path d="M15.2077 3C8.23759 3 2.58716 8.56933 2.58716 15.4395C2.58716 17.737 3.04341 20.11 4.35272 21.8203L15.2077 36L26.0627 21.8203C27.2519 20.2668 27.8282 17.5205 27.8282 15.4395C27.8283 8.56933 22.1778 3 15.2077 3ZM15.2077 10.2046C18.1405 10.2046 20.5187 12.5488 20.5187 15.4394C20.5187 18.3301 18.1405 20.6743 15.2077 20.6743C12.2749 20.6743 9.89672 18.3301 9.89672 15.4395C9.89672 12.5488 12.2749 10.2046 15.2077 10.2046Z" fill="#FAFAFA"/>
</g>
<defs>
<clipPath id="clip0_1_1737">
<rect width="27.6074" height="40" fill="white" transform="translate(0.220703)"/>
</clipPath>
</defs>
</svg>
