<svg width="39" height="30" viewBox="0 0 39 30" fill="none" xmlns="http://www.w3.org/2000/svg">
<path d="M9.6669 0.0276399L0.888428 8.553H9.6669V0.0276399ZM10.2987 0.0276399V8.553H22.3758V14.0899L31.0591 7.33942C31.0368 5.48872 31.1083 3.92625 31.0194 2.09072C30.7844 0.437221 28.9764 -0.139227 27.4699 0.0276399H10.2987ZM37.558 3.3498C36.2849 3.7973 35.4023 4.85918 34.3085 5.61008C30.3304 8.71986 26.4 11.86 22.4536 15.0001C27.2556 18.9291 32.0417 22.858 36.8437 26.7718C38.7771 27.7897 39.1105 25.537 38.9518 24.284V4.56337C38.9514 4.39236 38.9146 4.22322 38.8434 4.06631C38.7722 3.9094 38.6683 3.76803 38.538 3.65085C38.4076 3.53368 38.2536 3.44318 38.0854 3.38489C37.9171 3.3266 37.7382 3.30175 37.5596 3.31187L37.558 3.3498ZM0.94875 9.15978V20.8404H9.72722V9.15978H0.94875ZM22.5012 21.4472H10.4257V29.9726C16.5595 29.9635 22.7076 29.9893 28.8081 29.9589C30.4273 29.8527 31.3766 28.2599 31.1384 26.8188V23.0112L22.4552 15.9118V21.4487L22.5012 21.4472ZM0.94875 21.4472C0.980499 23.6317 0.883665 25.8161 1.00114 27.9854C1.2583 29.4234 2.83938 30.1546 4.2506 29.9726H9.74945V21.4472H0.94875Z" fill="#FAFAFA"/>
</svg>
