<svg width="33" height="30" viewBox="0 0 33 30" fill="none" xmlns="http://www.w3.org/2000/svg">
<path d="M3.05623 30C3.05623 30 0.410522 30 0.410522 27.5C0.410522 25 3.05623 17.5 16.2848 17.5C29.5134 17.5 32.1591 25 32.1591 27.5C32.1591 30 29.5134 30 29.5134 30H3.05623ZM16.2848 15C18.3899 15 20.4087 14.2098 21.8972 12.8033C23.3857 11.3968 24.2219 9.48912 24.2219 7.5C24.2219 5.51088 23.3857 3.60322 21.8972 2.1967C20.4087 0.790177 18.3899 0 16.2848 0C14.1797 0 12.1609 0.790177 10.6724 2.1967C9.18389 3.60322 8.34766 5.51088 8.34766 7.5C8.34766 9.48912 9.18389 11.3968 10.6724 12.8033C12.1609 14.2098 14.1797 15 16.2848 15Z" fill="#FAFAFA"/>
</svg>
